<svg width="46" height="41" viewBox="0 0 46 41" fill="none" xmlns="http://www.w3.org/2000/svg">
<path d="M4.24992 40.0833C3.10409 40.0833 2.12353 39.7002 1.30825 38.9338C0.491585 38.1661 0.083252 37.2438 0.083252 36.1667V12.6667C0.083252 11.5896 0.491585 10.6679 1.30825 9.9015C2.12353 9.13384 3.10409 8.75001 4.24992 8.75001H10.8124L14.6666 4.83334H27.1666V12.6667H33.4166V18.5417H41.7499V36.1667C41.7499 37.2438 41.3423 38.1661 40.527 38.9338C39.7103 39.7002 38.7291 40.0833 37.5833 40.0833H4.24992ZM20.9166 33.2292C23.5208 33.2292 25.7346 32.3727 27.5583 30.6598C29.3805 28.9456 30.2916 26.8646 30.2916 24.4167C30.2916 21.9688 29.3805 19.8877 27.5583 18.1735C25.7346 16.4606 23.5208 15.6042 20.9166 15.6042C18.3124 15.6042 16.0985 16.4606 14.2749 18.1735C12.4527 19.8877 11.5416 21.9688 11.5416 24.4167C11.5416 26.8646 12.4527 28.9456 14.2749 30.6598C16.0985 32.3727 18.3124 33.2292 20.9166 33.2292ZM20.9166 29.3125C19.4583 29.3125 18.2256 28.8392 17.2187 27.8927C16.2117 26.9462 15.7083 25.7875 15.7083 24.4167C15.7083 23.0458 16.2117 21.8872 17.2187 20.9406C18.2256 19.9941 19.4583 19.5208 20.9166 19.5208C22.3749 19.5208 23.6076 19.9941 24.6145 20.9406C25.6214 21.8872 26.1249 23.0458 26.1249 24.4167C26.1249 25.7875 25.6214 26.9462 24.6145 27.8927C23.6076 28.8392 22.3749 29.3125 20.9166 29.3125ZM37.5833 12.6667V8.75001H33.4166V4.83334H37.5833V0.916672H41.7499V4.83334H45.9166V8.75001H41.7499V12.6667H37.5833Z" fill="black"/>
</svg>
